<mxfile host="app.diagrams.net" agent="Mozilla/5.0 (Windows NT 10.0; Win64; x64) AppleWebKit/537.36 (KHTML, like Gecko) Chrome/140.0.0.0 Safari/537.36" version="28.2.3">
  <diagram name="Sida-1" id="7TudmmII3zZIZIbfpZJn">
    <mxGraphModel dx="1092" dy="562" grid="1" gridSize="10" guides="1" tooltips="1" connect="1" arrows="1" fold="1" page="1" pageScale="1" pageWidth="827" pageHeight="1169" math="0" shadow="0">
      <root>
        <mxCell id="0" />
        <mxCell id="1" parent="0" />
        <mxCell id="OYlZSxIW3G09kGssjF-V-11" value="&lt;p style=&quot;margin: 0px; line-height: 100%;&quot; align=&quot;center&quot;&gt;&lt;span style=&quot;font-family: Arial; font-size: 9.6pt; font-weight: 600; text-decoration-line: underline; color: rgb(69, 69, 69); background-color: transparent;&quot;&gt;Biluthyrningssystem&lt;/span&gt;&lt;/p&gt;&lt;br&gt;&lt;p style=&quot;margin: 0px; line-height: 100%; font-family: Arial; font-size: 9.6pt; color: rgb(69, 69, 69);&quot; align=&quot;center&quot;&gt;&lt;br&gt;&lt;/p&gt;&lt;br&gt;&lt;p style=&quot;margin: 0px; line-height: 100%;&quot; align=&quot;center&quot;&gt;&lt;span style=&quot;font-family: Arial; font-size: 8.8pt; color: rgb(69, 69, 69); background-color: transparent;&quot;&gt;Boka&lt;/span&gt;&lt;/p&gt;&lt;br&gt;&lt;p style=&quot;margin: 0px; line-height: 100%;&quot; align=&quot;center&quot;&gt;&lt;span style=&quot;font-family: Arial; font-size: 8.8pt; color: rgb(69, 69, 69); background-color: transparent;&quot;&gt;Hämta &lt;/span&gt;&lt;/p&gt;&lt;br&gt;&lt;p style=&quot;margin: 0px; line-height: 100%;&quot; align=&quot;center&quot;&gt;&lt;span style=&quot;font-family: Arial; font-size: 8.8pt; color: rgb(69, 69, 69); background-color: transparent;&quot;&gt;Lämna &lt;/span&gt;&lt;/p&gt;&lt;br&gt;&lt;p style=&quot;margin: 0px; line-height: 100%;&quot; align=&quot;center&quot;&gt;&lt;span style=&quot;font-family: Arial; font-size: 8.8pt; color: rgb(69, 69, 69); background-color: transparent;&quot;&gt;Bilar &lt;/span&gt;&lt;/p&gt;&lt;br&gt;&lt;p style=&quot;margin: 0px; line-height: 100%;&quot; align=&quot;center&quot;&gt;&lt;span style=&quot;font-family: Arial; font-size: 8.8pt; color: rgb(69, 69, 69); background-color: transparent;&quot;&gt;kunder&lt;/span&gt;&lt;/p&gt;&lt;br&gt;&lt;p style=&quot;margin: 0px; line-height: 100%;&quot; align=&quot;center&quot;&gt;&lt;span style=&quot;font-family: Arial; font-size: 8.8pt; color: rgb(69, 69, 69); background-color: transparent;&quot;&gt;Plats&lt;/span&gt;&lt;/p&gt;&lt;br&gt;&lt;p style=&quot;margin: 0px; line-height: 100%;&quot; align=&quot;center&quot;&gt;&lt;span style=&quot;font-family: Arial; font-size: 8.8pt; color: rgb(69, 69, 69); background-color: transparent;&quot;&gt;Skåpbilar &lt;/span&gt;&lt;/p&gt;&lt;br&gt;&lt;p style=&quot;margin: 0px; line-height: 100%;&quot; align=&quot;center&quot;&gt;&lt;span style=&quot;font-family: Arial; font-size: 8.8pt; color: rgb(69, 69, 69); background-color: transparent;&quot;&gt;Lastbil&lt;/span&gt;&lt;/p&gt;&lt;br&gt;&lt;p style=&quot;margin: 0px; line-height: 100%;&quot; align=&quot;center&quot;&gt;&lt;span style=&quot;font-family: Arial; font-size: 8.8pt; color: rgb(69, 69, 69); background-color: transparent;&quot;&gt;Reservera&lt;/span&gt;&lt;/p&gt;&lt;br&gt;&lt;p style=&quot;margin: 0px; line-height: 100%;&quot; align=&quot;center&quot;&gt;&lt;span style=&quot;font-family: Arial; font-size: 8.8pt; color: rgb(69, 69, 69); background-color: transparent;&quot;&gt;Pris&lt;/span&gt;&lt;/p&gt;&lt;br&gt;&lt;p style=&quot;margin: 0px; line-height: 100%;&quot; align=&quot;center&quot;&gt;&lt;span style=&quot;font-family: Arial; font-size: 8.8pt; color: rgb(69, 69, 69); background-color: transparent;&quot;&gt;Underhåll &#39;&lt;/span&gt;&lt;/p&gt;&lt;p style=&quot;margin: 0px; line-height: 100%;&quot; align=&quot;center&quot;&gt;&lt;br&gt;&lt;/p&gt;&lt;p style=&quot;margin: 0px; line-height: 100%;&quot; align=&quot;center&quot;&gt;&lt;span style=&quot;font-family: Arial; font-size: 9.6pt; color: rgb(69, 69, 69); background-color: transparent;&quot;&gt;Hyresavtal&lt;/span&gt;&lt;/p&gt;" style="text;html=1;align=center;verticalAlign=middle;resizable=0;points=[];autosize=1;strokeColor=none;fillColor=none;" vertex="1" parent="1">
          <mxGeometry x="35" y="277" width="150" height="380" as="geometry" />
        </mxCell>
        <mxCell id="OYlZSxIW3G09kGssjF-V-13" style="edgeStyle=orthogonalEdgeStyle;rounded=0;orthogonalLoop=1;jettySize=auto;html=1;exitX=0.5;exitY=1;exitDx=0;exitDy=0;" edge="1" parent="1">
          <mxGeometry relative="1" as="geometry">
            <mxPoint x="660" y="382" as="sourcePoint" />
            <mxPoint x="660" y="382" as="targetPoint" />
          </mxGeometry>
        </mxCell>
        <mxCell id="OYlZSxIW3G09kGssjF-V-38" value="&lt;p style=&quot;margin: 0px; line-height: 100%;&quot;&gt;&lt;span style=&quot;font-family: Arial; font-size: 9.6pt; font-weight: 600; text-decoration-line: underline; color: rgb(69, 69, 69); background-color: transparent;&quot;&gt;Klasser &lt;/span&gt;&lt;/p&gt;&lt;br/&gt;&lt;p style=&quot;margin: 0px; line-height: 100%; font-family: Arial; font-size: 9.6pt; color: rgb(69, 69, 69);&quot;&gt;&lt;br&gt;&lt;/p&gt;&lt;br/&gt;&lt;p style=&quot;margin: 0px; line-height: 100%;&quot;&gt;&lt;span style=&quot;font-family:&#39;Arial&#39;; font-size:9.6pt; color:#454545; background-color:transparent;&quot;&gt;Kund: namn, betala, boka, avboka ,hämta,lämna, &lt;/span&gt;&lt;/p&gt;&lt;br/&gt;&lt;p style=&quot;margin: 0px; line-height: 100%;&quot;&gt;&lt;span style=&quot;font-family:&#39;Arial&#39;; font-size:9.6pt; color:#454545; background-color:transparent;&quot;&gt;Personal: namn, registrera bil, hantera bokning, roll, personalID&lt;/span&gt;&lt;/p&gt;&lt;br/&gt;&lt;p style=&quot;margin: 0px; line-height: 100%;&quot;&gt;&lt;span style=&quot;font-family:&#39;Arial&#39;; font-size:9.6pt; color:#454545; background-color:transparent;&quot;&gt;Fordon: bilar, Lastbil, skåpbil, pris, underhåll&lt;/span&gt;&lt;/p&gt;&lt;br/&gt;&lt;p style=&quot;margin: 0px; line-height: 100%;&quot;&gt;&lt;span style=&quot;font-family:&#39;Arial&#39;; font-size:9.6pt; color:#454545; background-color:transparent;&quot;&gt;Bokning:  start och slut datum, total pris, bokningsnummer&lt;/span&gt;&lt;/p&gt;&lt;br/&gt;&lt;p style=&quot;margin: 0px; line-height: 100%;&quot;&gt;&lt;span style=&quot;font-family:&#39;Arial&#39;; font-size:9.6pt; color:#454545; background-color:transparent;&quot;&gt;Hyresavtal: kund info, plats, start och slut datum, kosnad , type av bil&lt;/span&gt;&lt;/p&gt;&lt;br/&gt;&lt;p style=&quot;margin: 0px; line-height: 100%;&quot;&gt;&lt;span style=&quot;font-family:&#39;Arial&#39;; font-size:9.6pt; color:#454545; background-color:transparent;&quot;&gt;Betalning: betalnings sätt, pris, datum, betalning id.&lt;/span&gt;&lt;/p&gt;&lt;br/&gt;&lt;p style=&quot;margin: 0px; line-height: 100%; font-family: Arial; font-size: 9.6pt; color: rgb(69, 69, 69);&quot;&gt;&lt;br&gt;&lt;/p&gt;" style="text;html=1;align=center;verticalAlign=middle;resizable=0;points=[];autosize=1;strokeColor=none;fillColor=none;" vertex="1" parent="1">
          <mxGeometry x="200" y="280" width="410" height="240" as="geometry" />
        </mxCell>
        <mxCell id="OYlZSxIW3G09kGssjF-V-43" value="Class Hyresavtal" style="swimlane;fontStyle=1;align=center;verticalAlign=top;childLayout=stackLayout;horizontal=1;startSize=26;horizontalStack=0;resizeParent=1;resizeParentMax=0;resizeLast=0;collapsible=1;marginBottom=0;whiteSpace=wrap;html=1;" vertex="1" parent="1">
          <mxGeometry x="680" y="360" width="160" height="160" as="geometry" />
        </mxCell>
        <mxCell id="OYlZSxIW3G09kGssjF-V-44" value="+ kund nummer&lt;div&gt;+star och slut datum&lt;/div&gt;&lt;div&gt;+kostnad per dag&amp;nbsp;&lt;/div&gt;" style="text;strokeColor=none;fillColor=none;align=left;verticalAlign=top;spacingLeft=4;spacingRight=4;overflow=hidden;rotatable=0;points=[[0,0.5],[1,0.5]];portConstraint=eastwest;whiteSpace=wrap;html=1;" vertex="1" parent="OYlZSxIW3G09kGssjF-V-43">
          <mxGeometry y="26" width="160" height="54" as="geometry" />
        </mxCell>
        <mxCell id="OYlZSxIW3G09kGssjF-V-45" value="" style="line;strokeWidth=1;fillColor=none;align=left;verticalAlign=middle;spacingTop=-1;spacingLeft=3;spacingRight=3;rotatable=0;labelPosition=right;points=[];portConstraint=eastwest;strokeColor=inherit;" vertex="1" parent="OYlZSxIW3G09kGssjF-V-43">
          <mxGeometry y="80" width="160" height="8" as="geometry" />
        </mxCell>
        <mxCell id="OYlZSxIW3G09kGssjF-V-46" value="+ avsluta hyra () void&lt;div&gt;+ förläng hyra () void&lt;/div&gt;" style="text;strokeColor=none;fillColor=none;align=left;verticalAlign=top;spacingLeft=4;spacingRight=4;overflow=hidden;rotatable=0;points=[[0,0.5],[1,0.5]];portConstraint=eastwest;whiteSpace=wrap;html=1;" vertex="1" parent="OYlZSxIW3G09kGssjF-V-43">
          <mxGeometry y="88" width="160" height="72" as="geometry" />
        </mxCell>
        <mxCell id="OYlZSxIW3G09kGssjF-V-47" value="Class kund" style="swimlane;fontStyle=1;align=center;verticalAlign=top;childLayout=stackLayout;horizontal=1;startSize=26;horizontalStack=0;resizeParent=1;resizeParentMax=0;resizeLast=0;collapsible=1;marginBottom=0;whiteSpace=wrap;html=1;" vertex="1" parent="1">
          <mxGeometry x="1000" y="360" width="160" height="160" as="geometry" />
        </mxCell>
        <mxCell id="OYlZSxIW3G09kGssjF-V-48" value="- namn&lt;div&gt;+ kund ID&lt;/div&gt;&lt;div&gt;+ telefonnummer&lt;/div&gt;" style="text;strokeColor=none;fillColor=none;align=left;verticalAlign=top;spacingLeft=4;spacingRight=4;overflow=hidden;rotatable=0;points=[[0,0.5],[1,0.5]];portConstraint=eastwest;whiteSpace=wrap;html=1;" vertex="1" parent="OYlZSxIW3G09kGssjF-V-47">
          <mxGeometry y="26" width="160" height="54" as="geometry" />
        </mxCell>
        <mxCell id="OYlZSxIW3G09kGssjF-V-49" value="" style="line;strokeWidth=1;fillColor=none;align=left;verticalAlign=middle;spacingTop=-1;spacingLeft=3;spacingRight=3;rotatable=0;labelPosition=right;points=[];portConstraint=eastwest;strokeColor=inherit;" vertex="1" parent="OYlZSxIW3G09kGssjF-V-47">
          <mxGeometry y="80" width="160" height="8" as="geometry" />
        </mxCell>
        <mxCell id="OYlZSxIW3G09kGssjF-V-50" value="+ boka () void&lt;div&gt;+ betala () void&lt;/div&gt;" style="text;strokeColor=none;fillColor=none;align=left;verticalAlign=top;spacingLeft=4;spacingRight=4;overflow=hidden;rotatable=0;points=[[0,0.5],[1,0.5]];portConstraint=eastwest;whiteSpace=wrap;html=1;" vertex="1" parent="OYlZSxIW3G09kGssjF-V-47">
          <mxGeometry y="88" width="160" height="72" as="geometry" />
        </mxCell>
        <mxCell id="OYlZSxIW3G09kGssjF-V-51" value="Class Bokning" style="swimlane;fontStyle=1;align=center;verticalAlign=top;childLayout=stackLayout;horizontal=1;startSize=26;horizontalStack=0;resizeParent=1;resizeParentMax=0;resizeLast=0;collapsible=1;marginBottom=0;whiteSpace=wrap;html=1;" vertex="1" parent="1">
          <mxGeometry x="1320" y="360" width="160" height="160" as="geometry" />
        </mxCell>
        <mxCell id="OYlZSxIW3G09kGssjF-V-52" value="+ bokningsnummer&lt;div&gt;+ adress&amp;nbsp;&lt;/div&gt;&lt;div&gt;+ bokningsdatum&lt;/div&gt;" style="text;strokeColor=none;fillColor=none;align=left;verticalAlign=top;spacingLeft=4;spacingRight=4;overflow=hidden;rotatable=0;points=[[0,0.5],[1,0.5]];portConstraint=eastwest;whiteSpace=wrap;html=1;" vertex="1" parent="OYlZSxIW3G09kGssjF-V-51">
          <mxGeometry y="26" width="160" height="64" as="geometry" />
        </mxCell>
        <mxCell id="OYlZSxIW3G09kGssjF-V-53" value="" style="line;strokeWidth=1;fillColor=none;align=left;verticalAlign=middle;spacingTop=-1;spacingLeft=3;spacingRight=3;rotatable=0;labelPosition=right;points=[];portConstraint=eastwest;strokeColor=inherit;" vertex="1" parent="OYlZSxIW3G09kGssjF-V-51">
          <mxGeometry y="90" width="160" height="8" as="geometry" />
        </mxCell>
        <mxCell id="OYlZSxIW3G09kGssjF-V-54" value="+ avboka () void" style="text;strokeColor=none;fillColor=none;align=left;verticalAlign=top;spacingLeft=4;spacingRight=4;overflow=hidden;rotatable=0;points=[[0,0.5],[1,0.5]];portConstraint=eastwest;whiteSpace=wrap;html=1;" vertex="1" parent="OYlZSxIW3G09kGssjF-V-51">
          <mxGeometry y="98" width="160" height="62" as="geometry" />
        </mxCell>
        <mxCell id="OYlZSxIW3G09kGssjF-V-55" value="Class Betalning" style="swimlane;fontStyle=1;align=center;verticalAlign=top;childLayout=stackLayout;horizontal=1;startSize=26;horizontalStack=0;resizeParent=1;resizeParentMax=0;resizeLast=0;collapsible=1;marginBottom=0;whiteSpace=wrap;html=1;" vertex="1" parent="1">
          <mxGeometry x="1161" y="640" width="160" height="160" as="geometry" />
        </mxCell>
        <mxCell id="OYlZSxIW3G09kGssjF-V-56" value="+ betalnings ID&lt;div&gt;+ belopp&amp;nbsp;&lt;/div&gt;&lt;div&gt;+ datum&lt;/div&gt;" style="text;strokeColor=none;fillColor=none;align=left;verticalAlign=top;spacingLeft=4;spacingRight=4;overflow=hidden;rotatable=0;points=[[0,0.5],[1,0.5]];portConstraint=eastwest;whiteSpace=wrap;html=1;" vertex="1" parent="OYlZSxIW3G09kGssjF-V-55">
          <mxGeometry y="26" width="160" height="64" as="geometry" />
        </mxCell>
        <mxCell id="OYlZSxIW3G09kGssjF-V-57" value="" style="line;strokeWidth=1;fillColor=none;align=left;verticalAlign=middle;spacingTop=-1;spacingLeft=3;spacingRight=3;rotatable=0;labelPosition=right;points=[];portConstraint=eastwest;strokeColor=inherit;" vertex="1" parent="OYlZSxIW3G09kGssjF-V-55">
          <mxGeometry y="90" width="160" height="8" as="geometry" />
        </mxCell>
        <mxCell id="OYlZSxIW3G09kGssjF-V-58" value="+ genomförbetalning () void&lt;div&gt;+ återbetalning () void&lt;/div&gt;" style="text;strokeColor=none;fillColor=none;align=left;verticalAlign=top;spacingLeft=4;spacingRight=4;overflow=hidden;rotatable=0;points=[[0,0.5],[1,0.5]];portConstraint=eastwest;whiteSpace=wrap;html=1;" vertex="1" parent="OYlZSxIW3G09kGssjF-V-55">
          <mxGeometry y="98" width="160" height="62" as="geometry" />
        </mxCell>
        <mxCell id="OYlZSxIW3G09kGssjF-V-59" value="Class Fordon" style="swimlane;fontStyle=1;align=center;verticalAlign=top;childLayout=stackLayout;horizontal=1;startSize=26;horizontalStack=0;resizeParent=1;resizeParentMax=0;resizeLast=0;collapsible=1;marginBottom=0;whiteSpace=wrap;html=1;" vertex="1" parent="1">
          <mxGeometry x="840" y="640" width="160" height="160" as="geometry" />
        </mxCell>
        <mxCell id="OYlZSxIW3G09kGssjF-V-60" value="+ pris per dag&amp;nbsp;&lt;div&gt;+ registreringsnummer&amp;nbsp;&lt;/div&gt;&lt;div&gt;+ typ av fordon&lt;/div&gt;" style="text;strokeColor=none;fillColor=none;align=left;verticalAlign=top;spacingLeft=4;spacingRight=4;overflow=hidden;rotatable=0;points=[[0,0.5],[1,0.5]];portConstraint=eastwest;whiteSpace=wrap;html=1;" vertex="1" parent="OYlZSxIW3G09kGssjF-V-59">
          <mxGeometry y="26" width="160" height="64" as="geometry" />
        </mxCell>
        <mxCell id="OYlZSxIW3G09kGssjF-V-61" value="" style="line;strokeWidth=1;fillColor=none;align=left;verticalAlign=middle;spacingTop=-1;spacingLeft=3;spacingRight=3;rotatable=0;labelPosition=right;points=[];portConstraint=eastwest;strokeColor=inherit;" vertex="1" parent="OYlZSxIW3G09kGssjF-V-59">
          <mxGeometry y="90" width="160" height="8" as="geometry" />
        </mxCell>
        <mxCell id="OYlZSxIW3G09kGssjF-V-62" value="+ markera ledig () void&lt;div&gt;+ markera underhåll () void&amp;nbsp;&lt;/div&gt;" style="text;strokeColor=none;fillColor=none;align=left;verticalAlign=top;spacingLeft=4;spacingRight=4;overflow=hidden;rotatable=0;points=[[0,0.5],[1,0.5]];portConstraint=eastwest;whiteSpace=wrap;html=1;" vertex="1" parent="OYlZSxIW3G09kGssjF-V-59">
          <mxGeometry y="98" width="160" height="62" as="geometry" />
        </mxCell>
        <mxCell id="OYlZSxIW3G09kGssjF-V-64" value="komposition:&lt;div&gt;bokning finns för att&amp;nbsp;&lt;/div&gt;&lt;div&gt;klassen kund existerar&lt;br&gt;&lt;div&gt;&lt;br&gt;&lt;/div&gt;&lt;/div&gt;" style="text;html=1;align=center;verticalAlign=middle;resizable=0;points=[];autosize=1;strokeColor=none;fillColor=none;" vertex="1" parent="1">
          <mxGeometry x="1171" y="363" width="140" height="70" as="geometry" />
        </mxCell>
        <mxCell id="OYlZSxIW3G09kGssjF-V-72" value="" style="endArrow=block;startArrow=block;endFill=1;startFill=1;html=1;rounded=0;" edge="1" parent="1">
          <mxGeometry width="160" relative="1" as="geometry">
            <mxPoint x="990" y="630" as="sourcePoint" />
            <mxPoint x="1010" y="520" as="targetPoint" />
          </mxGeometry>
        </mxCell>
        <mxCell id="OYlZSxIW3G09kGssjF-V-73" value="Association: de två klassen&amp;nbsp;&lt;div&gt;har relation med varandra&amp;nbsp;&lt;/div&gt;" style="text;html=1;align=center;verticalAlign=middle;resizable=0;points=[];autosize=1;strokeColor=none;fillColor=none;" vertex="1" parent="1">
          <mxGeometry x="820" y="585" width="170" height="40" as="geometry" />
        </mxCell>
        <mxCell id="OYlZSxIW3G09kGssjF-V-75" value="1" style="endArrow=open;html=1;endSize=12;startArrow=diamondThin;startSize=14;startFill=1;edgeStyle=orthogonalEdgeStyle;align=left;verticalAlign=bottom;rounded=0;" edge="1" parent="1">
          <mxGeometry x="-1" y="3" relative="1" as="geometry">
            <mxPoint x="1180" y="439.5" as="sourcePoint" />
            <mxPoint x="1280" y="439.5" as="targetPoint" />
          </mxGeometry>
        </mxCell>
        <mxCell id="OYlZSxIW3G09kGssjF-V-78" value="1" style="endArrow=open;html=1;endSize=12;startArrow=diamondThin;startSize=14;startFill=0;edgeStyle=orthogonalEdgeStyle;align=left;verticalAlign=bottom;rounded=0;" edge="1" parent="1">
          <mxGeometry x="-1" y="3" relative="1" as="geometry">
            <mxPoint x="855" y="439.5" as="sourcePoint" />
            <mxPoint x="985" y="439.5" as="targetPoint" />
            <Array as="points">
              <mxPoint x="915" y="439.5" />
              <mxPoint x="915" y="439.5" />
            </Array>
          </mxGeometry>
        </mxCell>
        <mxCell id="OYlZSxIW3G09kGssjF-V-79" value="hyresavtal kan inte&amp;nbsp;&lt;div&gt;finnas&lt;span style=&quot;background-color: transparent; color: light-dark(rgb(0, 0, 0), rgb(255, 255, 255));&quot;&gt;&amp;nbsp;utan kund och&amp;nbsp;&lt;/span&gt;&lt;/div&gt;&lt;div&gt;&lt;span style=&quot;background-color: transparent; color: light-dark(rgb(0, 0, 0), rgb(255, 255, 255));&quot;&gt;hyresavtal kan bara ha&amp;nbsp;&lt;/span&gt;&lt;/div&gt;&lt;div&gt;&lt;span style=&quot;background-color: transparent; color: light-dark(rgb(0, 0, 0), rgb(255, 255, 255));&quot;&gt;en kund&amp;nbsp;&lt;/span&gt;&lt;/div&gt;&lt;div&gt;&lt;br&gt;&lt;/div&gt;" style="text;html=1;align=center;verticalAlign=middle;resizable=0;points=[];autosize=1;strokeColor=none;fillColor=none;" vertex="1" parent="1">
          <mxGeometry x="850" y="343" width="150" height="90" as="geometry" />
        </mxCell>
        <mxCell id="OYlZSxIW3G09kGssjF-V-82" value="beroende: betalning är&lt;div&gt;&amp;nbsp;beroende av klass bokning&lt;/div&gt;" style="endArrow=open;endSize=12;dashed=1;html=1;rounded=0;" edge="1" parent="1">
          <mxGeometry x="0.1176" y="-31" width="160" relative="1" as="geometry">
            <mxPoint x="1280" y="630" as="sourcePoint" />
            <mxPoint x="1340" y="530" as="targetPoint" />
            <mxPoint as="offset" />
          </mxGeometry>
        </mxCell>
      </root>
    </mxGraphModel>
  </diagram>
</mxfile>
